<?xml version="1.0" encoding="UTF-8" standalone="no"?>
<!-- Created with Inkscape (http://www.inkscape.org/) -->

<svg
   xmlns:dc="http://purl.org/dc/elements/1.1/"
   xmlns:cc="http://creativecommons.org/ns#"
   xmlns:rdf="http://www.w3.org/1999/02/22-rdf-syntax-ns#"
   xmlns:svg="http://www.w3.org/2000/svg"
   xmlns="http://www.w3.org/2000/svg"
   xmlns:xlink="http://www.w3.org/1999/xlink"
   xmlns:sodipodi="http://sodipodi.sourceforge.net/DTD/sodipodi-0.dtd"
   xmlns:inkscape="http://www.inkscape.org/namespaces/inkscape"
   width="48px"
   height="48px"
   id="svg2985"
   version="1.1"
   inkscape:version="0.91 r"
   sodipodi:docname="export_svg.svg">
  <defs
     id="defs2987">
    <linearGradient
       id="linearGradient15218">
      <stop
         id="stop15220"
         offset="0.0000000"
         style="stop-color:#f0f0ef;stop-opacity:1.0000000;" />
      <stop
         style="stop-color:#e8e8e8;stop-opacity:1;"
         offset="0.59928656"
         id="stop2269" />
      <stop
         style="stop-color:#ffffff;stop-opacity:1;"
         offset="0.82758623"
         id="stop2267" />
      <stop
         id="stop15222"
         offset="1.0000000"
         style="stop-color:#d8d8d3;stop-opacity:1.0000000;" />
    </linearGradient>
    <linearGradient
       id="linearGradient2224">
      <stop
         id="stop2226"
         offset="0"
         style="stop-color:#7c7c7c;stop-opacity:1;" />
      <stop
         id="stop2228"
         offset="1"
         style="stop-color:#b8b8b8;stop-opacity:1;" />
    </linearGradient>
    <inkscape:perspective
       sodipodi:type="inkscape:persp3d"
       inkscape:vp_x="0 : 32 : 1"
       inkscape:vp_y="0 : 1000 : 0"
       inkscape:vp_z="64 : 32 : 1"
       inkscape:persp3d-origin="32 : 21.333333 : 1"
       id="perspective3148" />
    <linearGradient
       id="linearGradient3682">
      <stop
         style="stop-color:#ff6d0f;stop-opacity:1;"
         offset="0"
         id="stop3684" />
      <stop
         style="stop-color:#ff1000;stop-opacity:1;"
         offset="1"
         id="stop3686" />
    </linearGradient>
    <linearGradient
       id="linearGradient3864">
      <stop
         id="stop3866"
         offset="0"
         style="stop-color:#71b2f8;stop-opacity:1;" />
      <stop
         id="stop3868"
         offset="1"
         style="stop-color:#002795;stop-opacity:1;" />
    </linearGradient>
    <linearGradient
       inkscape:collect="always"
       xlink:href="#linearGradient2690"
       id="linearGradient2696"
       x1="32.647972"
       y1="30.748846"
       x2="37.124462"
       y2="24.842253"
       gradientUnits="userSpaceOnUse" />
    <linearGradient
       inkscape:collect="always"
       xlink:href="#linearGradient2682"
       id="linearGradient2688"
       x1="36.713837"
       y1="31.455952"
       x2="37.124462"
       y2="24.842253"
       gradientUnits="userSpaceOnUse" />
    <radialGradient
       inkscape:collect="always"
       xlink:href="#linearGradient8662"
       id="radialGradient1503"
       gradientUnits="userSpaceOnUse"
       gradientTransform="matrix(1,0,0,0.536723,0,16.87306)"
       cx="24.837126"
       cy="36.421127"
       fx="24.837126"
       fy="36.421127"
       r="15.644737" />
    <linearGradient
       inkscape:collect="always"
       xlink:href="#linearGradient2847"
       id="linearGradient1488"
       gradientUnits="userSpaceOnUse"
       gradientTransform="matrix(-1,0,0,-1,47.52791,45.84741)"
       x1="37.128052"
       y1="29.729605"
       x2="37.065414"
       y2="26.194071" />
    <linearGradient
       inkscape:collect="always"
       xlink:href="#linearGradient2831"
       id="linearGradient1486"
       gradientUnits="userSpaceOnUse"
       gradientTransform="translate(0.465413,-0.277593)"
       x1="13.478554"
       y1="10.612206"
       x2="15.419417"
       y2="19.115122" />
    <linearGradient
       inkscape:collect="always"
       id="linearGradient8662">
      <stop
         style="stop-color:#000000;stop-opacity:1;"
         offset="0"
         id="stop8664" />
      <stop
         style="stop-color:#000000;stop-opacity:0;"
         offset="1"
         id="stop8666" />
    </linearGradient>
    <linearGradient
       id="linearGradient2831">
      <stop
         style="stop-color:#3465a4;stop-opacity:1;"
         offset="0"
         id="stop2833" />
      <stop
         id="stop2855"
         offset="0.33333334"
         style="stop-color:#5b86be;stop-opacity:1;" />
      <stop
         style="stop-color:#83a8d8;stop-opacity:0;"
         offset="1"
         id="stop2835" />
    </linearGradient>
    <linearGradient
       inkscape:collect="always"
       id="linearGradient2847">
      <stop
         style="stop-color:#3465a4;stop-opacity:1;"
         offset="0"
         id="stop2849" />
      <stop
         style="stop-color:#3465a4;stop-opacity:0;"
         offset="1"
         id="stop2851" />
    </linearGradient>
    <linearGradient
       id="linearGradient2380">
      <stop
         style="stop-color:#b9cfe7;stop-opacity:1"
         offset="0"
         id="stop2382" />
      <stop
         style="stop-color:#729fcf;stop-opacity:1"
         offset="1"
         id="stop2384" />
    </linearGradient>
    <linearGradient
       id="linearGradient2402">
      <stop
         style="stop-color:#729fcf;stop-opacity:1;"
         offset="0"
         id="stop2404" />
      <stop
         style="stop-color:#528ac5;stop-opacity:1;"
         offset="1"
         id="stop2406" />
    </linearGradient>
    <linearGradient
       id="linearGradient2682">
      <stop
         style="stop-color:#3977c3;stop-opacity:1;"
         offset="0"
         id="stop2684" />
      <stop
         style="stop-color:#89aedc;stop-opacity:0;"
         offset="1"
         id="stop2686" />
    </linearGradient>
    <linearGradient
       inkscape:collect="always"
       id="linearGradient2690">
      <stop
         style="stop-color:#c4d7eb;stop-opacity:1;"
         offset="0"
         id="stop2692" />
      <stop
         style="stop-color:#c4d7eb;stop-opacity:0;"
         offset="1"
         id="stop2694" />
    </linearGradient>
    <linearGradient
       inkscape:collect="always"
       xlink:href="#linearGradient5048"
       id="linearGradient5027"
       gradientUnits="userSpaceOnUse"
       gradientTransform="matrix(2.774389,0,0,1.969706,-1892.179,-872.8854)"
       x1="302.85715"
       y1="366.64789"
       x2="302.85715"
       y2="609.50507" />
    <linearGradient
       id="linearGradient5048">
      <stop
         style="stop-color:black;stop-opacity:0;"
         offset="0"
         id="stop5050" />
      <stop
         id="stop5056"
         offset="0.5"
         style="stop-color:black;stop-opacity:1;" />
      <stop
         style="stop-color:black;stop-opacity:0;"
         offset="1"
         id="stop5052" />
    </linearGradient>
    <radialGradient
       inkscape:collect="always"
       xlink:href="#linearGradient8662"
       id="radialGradient5029"
       gradientUnits="userSpaceOnUse"
       gradientTransform="matrix(2.774389,0,0,1.969706,-1891.633,-872.8854)"
       cx="605.71429"
       cy="486.64789"
       fx="605.71429"
       fy="486.64789"
       r="117.14286" />
    <radialGradient
       inkscape:collect="always"
       xlink:href="#linearGradient8662"
       id="radialGradient5031"
       gradientUnits="userSpaceOnUse"
       gradientTransform="matrix(-2.774389,0,0,1.969706,112.7623,-872.8854)"
       cx="605.71429"
       cy="486.64789"
       fx="605.71429"
       fy="486.64789"
       r="117.14286" />
  </defs>
  <sodipodi:namedview
     id="base"
     pagecolor="#ffffff"
     bordercolor="#666666"
     borderopacity="1.0"
     inkscape:pageopacity="0.0"
     inkscape:pageshadow="2"
     inkscape:zoom="7"
     inkscape:cx="-38.282557"
     inkscape:cy="3.7955208"
     inkscape:current-layer="layer1"
     showgrid="true"
     inkscape:grid-bbox="true"
     inkscape:document-units="px"
     inkscape:window-width="1920"
     inkscape:window-height="1023"
     inkscape:window-x="0"
     inkscape:window-y="0"
     inkscape:window-maximized="1" />
  <metadata
     id="metadata2990">
    <rdf:RDF>
      <cc:Work
         rdf:about="">
        <dc:format>image/svg+xml</dc:format>
        <dc:type
           rdf:resource="http://purl.org/dc/dcmitype/StillImage" />
        <dc:title />
      </cc:Work>
    </rdf:RDF>
  </metadata>
  <g
     id="layer1"
     inkscape:label="Layer 1"
     inkscape:groupmode="layer">
    <g
       style="display:inline"
       id="g5022"
       transform="matrix(0.02165152,0,0,0.01485743,43.114775,43.256817)">
      <rect
         y="-150.69685"
         x="-1559.2523"
         height="478.35718"
         width="1339.6335"
         id="rect4173"
         style="color:#000000;display:inline;overflow:visible;visibility:visible;opacity:0.40206185;fill:url(#linearGradient5027);fill-opacity:1;fill-rule:nonzero;stroke:none;stroke-width:1;stroke-linecap:round;stroke-linejoin:miter;stroke-miterlimit:4;stroke-dasharray:none;stroke-dashoffset:0;stroke-opacity:1;marker:none;marker-start:none;marker-mid:none;marker-end:none" />
      <path
         inkscape:connector-curvature="0"
         sodipodi:nodetypes="cccc"
         id="path5058"
         d="m -219.61876,-150.68038 c 0,0 0,478.33079 0,478.33079 142.874166,0.90045 345.40022,-107.16966 345.40014,-239.196175 0,-132.026537 -159.436816,-239.134595 -345.40014,-239.134615 z"
         style="color:#000000;display:inline;overflow:visible;visibility:visible;opacity:0.40206185;fill:url(#radialGradient5029);fill-opacity:1;fill-rule:nonzero;stroke:none;stroke-width:1;stroke-linecap:round;stroke-linejoin:miter;stroke-miterlimit:4;stroke-dasharray:none;stroke-dashoffset:0;stroke-opacity:1;marker:none;marker-start:none;marker-mid:none;marker-end:none" />
      <path
         inkscape:connector-curvature="0"
         style="color:#000000;display:inline;overflow:visible;visibility:visible;opacity:0.40206185;fill:url(#radialGradient5031);fill-opacity:1;fill-rule:nonzero;stroke:none;stroke-width:1;stroke-linecap:round;stroke-linejoin:miter;stroke-miterlimit:4;stroke-dasharray:none;stroke-dashoffset:0;stroke-opacity:1;marker:none;marker-start:none;marker-mid:none;marker-end:none"
         d="m -1559.2523,-150.68038 c 0,0 0,478.33079 0,478.33079 -142.8742,0.90045 -345.4002,-107.16966 -345.4002,-239.196175 0,-132.026537 159.4368,-239.134595 345.4002,-239.134615 z"
         id="path5018"
         sodipodi:nodetypes="cccc" />
    </g>
    <rect
       style="opacity:1;fill:#e67d28;fill-opacity:1;stroke:none;stroke-width:2;stroke-linecap:square;stroke-linejoin:round;stroke-miterlimit:4;stroke-dasharray:none;stroke-dashoffset:0;stroke-opacity:1"
       id="rect4154"
       width="30.674381"
       height="13.562582"
       x="8.8317909"
       y="28.879126"
       rx="0.149049"
       ry="0.149049" />
    <g
       transform="matrix(0.52793464,0,0,0.52793464,-10.40297,-12.884417)"
       id="g3">
      <path
         style="fill:#ffffff;fill-opacity:1;fill-rule:evenodd;stroke:none;stroke-width:1px;stroke-linecap:butt;stroke-linejoin:round;stroke-opacity:1"
         d="M 72.484438,25.60135 36.242219,25.984866 36.529856,79.48528 96.070643,79.772917 94.728339,47.269978 Z"
         id="path4162"
         inkscape:connector-curvature="0"
         sodipodi:nodetypes="cccccc" />
      <path
         inkscape:connector-curvature="0"
         d="m 90.249,107.596 -49.333,0 c -3.584,0 -6.5,-2.916 -6.5,-6.5 l 0,-70.235 c 0,-3.584 2.916,-6.5 6.5,-6.5 l 28.726,0 c 3.152,0 7.367,1.746 9.596,3.975 l 13.537,13.537 c 2.229,2.229 3.975,6.444 3.975,9.596 l 0,49.627 c -0.001,3.584 -2.917,6.5 -6.501,6.5 z M 40.916,27.361 c -1.93,0 -3.5,1.57 -3.5,3.5 l 0,70.235 c 0,1.93 1.57,3.5 3.5,3.5 l 49.333,0 c 1.93,0 3.5,-1.57 3.5,-3.5 l 0,-49.627 c 0,-2.333 -1.446,-5.826 -3.096,-7.475 L 77.116,30.457 c -1.649,-1.649 -5.142,-3.096 -7.475,-3.096 l -28.725,0 z"
         style="fill:#313335;stroke:none;stroke-opacity:1"
         id="path5" />
    </g>
    <g
       transform="matrix(0.52793464,0,0,0.52793464,-10.40297,-12.884417)"
       id="g7">
      <path
         inkscape:connector-curvature="0"
         d="m 90.249,47.969 -10.607,0 c -3.584,0 -6.5,-2.916 -6.5,-6.5 l 0,-10.608 c 0,-3.013 1.617,-4.082 3.003,-4.082 1.02,0 2.06,0.524 3.093,1.557 l 13.537,13.537 c 1.886,1.886 1.657,3.398 1.354,4.132 -0.306,0.733 -1.213,1.964 -3.88,1.964 z M 76.284,29.827 c -0.062,0.16 -0.143,0.476 -0.143,1.034 l 0,10.608 c 0,1.93 1.57,3.5 3.5,3.5 l 10.607,0 c 0.558,0 0.874,-0.081 1.034,-0.143 -0.069,-0.157 -0.235,-0.438 -0.63,-0.832 L 77.116,30.457 c -0.394,-0.394 -0.675,-0.561 -0.832,-0.63 z"
         style="fill:#313335"
         id="path9" />
    </g>
    <g
       transform="matrix(0.52793464,0,0,0.52793464,-10.40297,-12.884417)"
       id="g15" />
    <g
       transform="matrix(0.52793464,0,0,0.52793464,-10.40297,-12.884417)"
       id="g23" />
    <rect
       height="67.57563"
       id="_x3C_Slice_x3E__11_"
       style="fill:none"
       width="67.57563"
       x="-10.139"
       y="-12.620449" />
    <path
       inkscape:connector-curvature="0"
       style="fill:#646464;fill-opacity:1"
       d="m 33.194485,18.149302 0,-3.346258 -3.346258,0 0,1.115419 -3.34626,0 0,-2.230839 -5.577098,0 0,2.230839 -3.346258,0 0,-1.115419 -3.346259,0 0,3.346258 3.346259,0 0,-1.115419 1.978754,0 c -2.546504,1.470124 -4.209594,4.231902 -4.209594,7.250229 0,0.307855 0.249296,0.557708 0.55771,0.557708 0.308414,0 0.55771,-0.249853 0.55771,-0.557708 0,-2.925747 1.800845,-5.576542 4.461678,-6.68973 l 0,1.670341 5.577098,0 0,-1.670341 c 2.660833,1.113745 4.46168,3.764541 4.46168,6.68973 0,0.307855 0.249295,0.557708 0.557709,0.557708 0.308413,0 0.55771,-0.249853 0.55771,-0.557708 0,-3.018327 -1.663091,-5.780105 -4.209595,-7.250229 l 1.978756,0 0,1.115419 3.346258,0 z m -16.731294,-1.115419 -1.11542,0 0,-1.11542 1.11542,0 0,1.11542 z m 8.923357,1.115419 -3.346259,0 0,-2.093642 0,-1.252616 3.346259,0 0,1.252616 0,2.093642 z m 5.577099,-2.230839 1.115419,0 0,1.11542 -1.115419,0 0,-1.11542 z"
       id="path19" />
    <text
       xml:space="preserve"
       style="font-style:normal;font-variant:normal;font-weight:normal;font-stretch:normal;font-size:11.87852955px;line-height:124.00000095%;font-family:Baloo;-inkscape-font-specification:Baloo;letter-spacing:0px;word-spacing:0px;fill:#ffffff;fill-opacity:1;stroke:none;stroke-width:1px;stroke-linecap:butt;stroke-linejoin:miter;stroke-opacity:1"
       x="13.292859"
       y="39.528942"
       id="text4144"
       sodipodi:linespacing="124%"><tspan
         sodipodi:role="line"
         id="tspan4146"
         x="13.292859"
         y="39.528942">SVG</tspan></text>
  </g>
</svg>
