<?xml version="1.0" encoding="UTF-8" standalone="no"?>
<svg
   xmlns:dc="http://purl.org/dc/elements/1.1/"
   xmlns:cc="http://creativecommons.org/ns#"
   xmlns:rdf="http://www.w3.org/1999/02/22-rdf-syntax-ns#"
   xmlns:svg="http://www.w3.org/2000/svg"
   xmlns="http://www.w3.org/2000/svg"
   xmlns:sodipodi="http://sodipodi.sourceforge.net/DTD/sodipodi-0.dtd"
   xmlns:inkscape="http://www.inkscape.org/namespaces/inkscape"
   width="94.32"
   height="64"
   version="1.1"
   viewBox="0 0 94.32 64"
   id="svg2"
   inkscape:version="0.91 r"
   sodipodi:docname="Gd&amp;t_statisticaltolerance2.svg">
  <metadata
     id="metadata10">
    <rdf:RDF>
      <cc:Work
         rdf:about="">
        <dc:format>image/svg+xml</dc:format>
        <dc:type
           rdf:resource="http://purl.org/dc/dcmitype/StillImage" />
        <dc:title></dc:title>
      </cc:Work>
    </rdf:RDF>
  </metadata>
  <defs
     id="defs8" />
  <sodipodi:namedview
     pagecolor="#ffffff"
     bordercolor="#666666"
     borderopacity="1"
     objecttolerance="10"
     gridtolerance="10"
     guidetolerance="10"
     inkscape:pageopacity="0"
     inkscape:pageshadow="2"
     inkscape:window-width="1920"
     inkscape:window-height="1023"
     id="namedview6"
     showgrid="false"
     inkscape:zoom="2.841391"
     inkscape:cx="47.86388"
     inkscape:cy="32"
     inkscape:window-x="0"
     inkscape:window-y="0"
     inkscape:window-maximized="1"
     inkscape:current-layer="svg2" />
  <path
     d="m 83.799086,66.636608 -72.769879,0 -19.9223413,-34.568577 19.9223413,-34.6262399 72.769879,0 19.907934,34.6262399 z m -3.15701,-63.8898809 -66.427024,0 -16.9238993,29.3213039 16.9238993,29.292472 66.427024,0 16.88065,-29.292472 z m -14.689483,15.9580549 0,33.098187 -5.391429,0 0,-33.098187 -11.359483,0 0,-5.290521 28.081563,0 0,5.290521 z m -22.459484,5.333767 -4.28143,-4.194936 -3.733637,-1.254156 -5.564416,0 -3.762468,1.254156 -1.974936,1.931689 0,1.36948 1.124416,2.205585 0.98026,0.965845 2.58039,1.254156 9.672859,3.128182 3.748052,1.801948 2.205585,2.147923 2.09026,4.094026 0,6.400521 -4.396754,4.367923 -5.881559,1.902857 -7.279871,0 -5.809482,-1.902857 -5.103118,-5.002209 3.575066,-3.935455 4.468832,4.339092 3.762468,1.210909 5.564416,0 3.733637,-1.210909 2.003767,-1.902858 0,-2.984026 -1.124416,-2.19117 -0.994675,-0.965844 -2.652468,-1.268572 -9.600781,-3.128182 -3.748053,-1.845195 -2.263247,-2.133507 -2.047013,-4.108442 0,-4.843637 4.425585,-4.28143 5.809482,-1.960519 7.279871,0 5.852728,1.960519 5.276105,5.103118 z"
     style="fill:#000000"
     id="path4"
     inkscape:connector-curvature="0" />
</svg>
