<?xml version="1.0" encoding="UTF-8" standalone="no"?>
<svg
   xmlns:dc="http://purl.org/dc/elements/1.1/"
   xmlns:cc="http://creativecommons.org/ns#"
   xmlns:rdf="http://www.w3.org/1999/02/22-rdf-syntax-ns#"
   xmlns:svg="http://www.w3.org/2000/svg"
   xmlns="http://www.w3.org/2000/svg"
   xmlns:sodipodi="http://sodipodi.sourceforge.net/DTD/sodipodi-0.dtd"
   xmlns:inkscape="http://www.inkscape.org/namespaces/inkscape"
   width="94.32"
   height="64"
   version="1.1"
   viewBox="0 0 94.32 64"
   id="svg2"
   inkscape:version="0.91 r"
   sodipodi:docname="Gd&amp;t_continuousfeature2.svg">
  <metadata
     id="metadata10">
    <rdf:RDF>
      <cc:Work
         rdf:about="">
        <dc:format>image/svg+xml</dc:format>
        <dc:type
           rdf:resource="http://purl.org/dc/dcmitype/StillImage" />
        <dc:title></dc:title>
      </cc:Work>
    </rdf:RDF>
  </metadata>
  <defs
     id="defs8" />
  <sodipodi:namedview
     pagecolor="#ffffff"
     bordercolor="#666666"
     borderopacity="1"
     objecttolerance="10"
     gridtolerance="10"
     guidetolerance="10"
     inkscape:pageopacity="0"
     inkscape:pageshadow="2"
     inkscape:window-width="1920"
     inkscape:window-height="1023"
     id="namedview6"
     showgrid="false"
     inkscape:zoom="2.841391"
     inkscape:cx="-8.6225373"
     inkscape:cy="32"
     inkscape:window-x="0"
     inkscape:window-y="0"
     inkscape:window-maximized="1"
     inkscape:current-layer="svg2" />
  <path
     d="m 83.814887,66.206268 -71.993138,0 -19.6590624,-34.424697 19.6590624,-33.8556934 71.993138,0 19.730183,33.8556934 z m -3.058393,-62.9033097 -65.819452,0 -16.6433454,28.4786127 16.6433454,29.047616 65.819452,0 16.657571,-29.047616 z M 47.000376,39.847192 42.4768,37.699205 l -2.361363,4.864978 -2.361364,2.674315 -2.147987,1.081106 -4.751177,0 -2.105312,-1.081106 -2.418264,-2.674315 -1.237582,-2.716991 -1.337158,-3.755421 0,-6.998741 1.337158,-4.295974 1.294482,-2.147987 2.361364,-3.229094 2.162212,-1.066881 4.637377,0 2.204887,1.066881 2.361364,3.229094 2.361363,4.295974 4.523576,-2.147987 -2.63164,-5.903409 -3.613171,-3.229093 -3.968797,-2.147988 -7.169441,0 -3.869223,2.147988 -3.655846,3.229093 -1.721235,4.295975 -1.721234,4.836527 0,8.59195 1.721234,4.864977 1.721235,4.295975 3.655846,3.229093 3.812322,2.147988 7.325917,0 3.869222,-2.147988 3.613171,-3.229093 z m 28.421713,-20.953545 0,-4.836528 -23.755886,0 0,37.099013 5.007229,0 0,-16.686021 11.39429,0 0,-5.377081 -11.39429,0 0,-10.199383 z"
     style="fill:#000000"
     id="path4"
     inkscape:connector-curvature="0" />
</svg>
