<?xml version="1.0" encoding="UTF-8" standalone="no"?>
<svg
   xmlns:dc="http://purl.org/dc/elements/1.1/"
   xmlns:cc="http://creativecommons.org/ns#"
   xmlns:rdf="http://www.w3.org/1999/02/22-rdf-syntax-ns#"
   xmlns:svg="http://www.w3.org/2000/svg"
   xmlns="http://www.w3.org/2000/svg"
   xmlns:sodipodi="http://sodipodi.sourceforge.net/DTD/sodipodi-0.dtd"
   xmlns:inkscape="http://www.inkscape.org/namespaces/inkscape"
   version="1.1"
   viewBox="0 0 1452 2048"
   id="svg2"
   inkscape:version="0.91 r"
   sodipodi:docname="copyleft.svg">
  <metadata
     id="metadata12">
    <rdf:RDF>
      <cc:Work
         rdf:about="">
        <dc:format>image/svg+xml</dc:format>
        <dc:type
           rdf:resource="http://purl.org/dc/dcmitype/StillImage" />
        <dc:title></dc:title>
      </cc:Work>
    </rdf:RDF>
  </metadata>
  <defs
     id="defs10" />
  <sodipodi:namedview
     pagecolor="#ffffff"
     bordercolor="#666666"
     borderopacity="1"
     objecttolerance="10"
     gridtolerance="10"
     guidetolerance="10"
     inkscape:pageopacity="0"
     inkscape:pageshadow="2"
     inkscape:window-width="1155"
     inkscape:window-height="622"
     id="namedview8"
     showgrid="false"
     inkscape:zoom="0.11523438"
     inkscape:cx="-224.23729"
     inkscape:cy="1024"
     inkscape:window-x="0"
     inkscape:window-y="0"
     inkscape:window-maximized="0"
     inkscape:current-layer="svg2" />
  <g
     transform="matrix(-1,0,0,-1,1452,1638)"
     id="g4">
    <path
       d="m 726,1320 q 247,0 420.5,-173.5 Q 1320,973 1320,726 1320,480 1146,306 972,132 726,132 481,132 306.5,306.5 132,481 132,726 q 0,246 174,420 174,174 420,174 z m 0,-132 Q 534,1188 399,1053 264,918 264,726 264,536 400,400 536,264 726,264 q 192,0 327,135 135,135 135,327 0,192 -135,327 -135,135 -327,135 z M 858,924 726,924 Q 671,924 632.5,885.5 594,847 594,792 l 0,-132 q 0,-54 39,-93 39,-39 93,-39 l 132,0 q 66,0 66,-66 0,-66 -66,-66 l -132,0 Q 615,396 538.5,473 462,550 462,660 l 0,132 q 0,111 77,187.5 77,76.5 187,76.5 l 132,0 q 66,0 66,-66 0,-66 -66,-66 z"
       id="path6"
       inkscape:connector-curvature="0"
       style="fill:currentColor" />
  </g>
</svg>
