<?xml version="1.0" standalone="no"?>
<!DOCTYPE svg PUBLIC "-//W3C//DTD SVG 1.1//EN" "http://www.w3.org/Graphics/SVG/1.1/DTD/svg11.dtd" >
<svg xmlns="http://www.w3.org/2000/svg" xmlns:xlink="http://www.w3.org/1999/xlink" version="1.1" viewBox="0 0 1368 2048">
  <g transform="matrix(1 0 0 -1 0 1638)">
   <path fill="currentColor"
d="M557 -41q-13 -45 -60 -45q-39 0 -54 27q-10 18 -10 36q0 8 2 16l35 129q-193 76 -293 251q-77 135 -77 291t78.5 291t215.5 215q137 79 293 79q42 0 86 -6l42 154q15 46 60 46q37 0 53 -26q11 -18 11 -37q0 -9 -2 -17l-41 -152q191 -72 295 -252q77 -133 77 -290
t-79 -293t-216 -214t-292 -78q-44 0 -89 6zM685 1122q-124 0 -229 -62q-107 -63 -168 -170q-62 -109 -62 -228q0 -122 68 -239t209 -178l236 874q-28 3 -54 3zM863 1088l-238 -874q32 -4 63 -4q117 0 223.5 62t168.5 168q62 105 62 228t-60 227q-77 133 -219 193z" />
  </g>

</svg>
