<?xml version="1.0" standalone="no"?>
<!DOCTYPE svg PUBLIC "-//W3C//DTD SVG 1.1//EN" "http://www.w3.org/Graphics/SVG/1.1/DTD/svg11.dtd" >
<svg xmlns="http://www.w3.org/2000/svg" xmlns:xlink="http://www.w3.org/1999/xlink" version="1.1" viewBox="0 0 1452 2048">
  <g transform="matrix(1 0 0 -1 0 1638)">
   <path fill="currentColor"
d="M1089 1254q0 -18 -8 -32l-661 -1187q-19 -35 -57 -35q-66 0 -66 66q0 19 8 33l661 1187q19 34 57 34q66 0 66 -66zM1320 99q0 -106 -75.5 -168.5t-188.5 -62.5t-187 61q-77 64 -77 170q0 41 17 90q20 56 48 75q-31 18 -49 75q-16 46 -16 90q0 106 77 170q74 61 187 61
t187 -61q77 -64 77 -170q0 -41 -17 -90q-20 -55 -48 -75q31 -18 49 -75q16 -46 16 -90zM1188 429q0 99 -132 99t-132 -99t132 -99t132 99zM1189 100q0 98 -132 98q-133 0 -133 -98q0 -100 133 -100q132 0 132 100zM264 1320h231q64 0 64 66t-66 66h-294q-26 0 -46.5 -19.5
t-20.5 -43.5v-272q0 -61 77 -61h84q167 0 167 -132q0 -62 -42.5 -97t-106.5 -35h-113q-66 0 -66 -66t66 -66h130q110 0 187 77t77 187q0 102 -61 179q-68 85 -178 85h-89v132z" />
  </g>

</svg>
