<?xml version="1.0" standalone="no"?>
<!DOCTYPE svg PUBLIC "-//W3C//DTD SVG 1.1//EN" "http://www.w3.org/Graphics/SVG/1.1/DTD/svg11.dtd" >
<svg xmlns="http://www.w3.org/2000/svg" xmlns:xlink="http://www.w3.org/1999/xlink" version="1.1" viewBox="0 0 1452 2048">
  <g transform="matrix(1 0 0 -1 0 1638)">
   <path fill="currentColor"
d="M363 1320q96 0 163.5 -67.5t67.5 -163.5t-67.5 -163.5t-163.5 -67.5t-163.5 67.5t-67.5 163.5t67.5 163.5t163.5 67.5zM363 1188q-41 0 -70 -29t-29 -70t29 -70t70 -29t70 29t29 70t-29 70t-70 29zM495 330q96 0 163.5 -67.5t67.5 -163.5t-67.5 -163.5t-163.5 -67.5
t-163.5 67.5t-67.5 163.5t67.5 163.5t163.5 67.5zM495 198q-41 0 -70 -29t-29 -70t29 -70t70 -29t70 29t29 70t-29 70t-70 29zM1089 330q96 0 163.5 -67.5t67.5 -163.5t-67.5 -163.5t-163.5 -67.5t-163.5 67.5t-67.5 163.5t67.5 163.5t163.5 67.5zM1089 198q-41 0 -70 -29
t-29 -70t29 -70t70 -29t70 29t29 70t-29 70t-70 29zM132 396q0 31 24 51l792 660q18 15 42 15q66 0 66 -66q0 -31 -23 -50l-792 -660q-19 -16 -43 -16q-26 0 -46 20t-20 46z" />
  </g>

</svg>
