<?xml version="1.0" standalone="no"?>
<!DOCTYPE svg PUBLIC "-//W3C//DTD SVG 1.1//EN" "http://www.w3.org/Graphics/SVG/1.1/DTD/svg11.dtd" >
<svg xmlns="http://www.w3.org/2000/svg" xmlns:xlink="http://www.w3.org/1999/xlink" version="1.1" viewBox="0 0 1452 2048">
  <g transform="matrix(1 0 0 -1 0 1638)">
   <path fill="currentColor"
d="M264 1260q0 -26 -18 -48q-20 -25 -48 -24q-66 2 -66 72v130q0 26 20.5 44t45.5 18h377q49 0 28 -68l-208 -679q-14 -45 -84 -45q-16 0 -31 19t-15 36q0 18 4 30l177 575h-182v-60zM1056 1254q0 -18 -8 -32l-661 -1187q-19 -35 -68 -35q-55 0 -55 66q0 19 8 33l661 1187
q19 34 57 34q66 0 66 -66zM1320 99q0 -106 -75.5 -168.5t-188.5 -62.5t-187 61q-77 64 -77 170q0 41 17 90q20 56 48 75q-31 18 -49 75q-16 46 -16 90q0 106 77 170q74 61 187 61t187 -61q77 -64 77 -170q0 -41 -17 -90q-20 -55 -48 -75q31 -18 49 -75q16 -46 16 -90z
M1188 429q0 99 -132 99t-132 -99t132 -99t132 99zM1189 100q0 98 -132 98q-133 0 -133 -98q0 -100 133 -100q132 0 132 100z" />
  </g>

</svg>
