<?xml version="1.0" standalone="no"?>
<!DOCTYPE svg PUBLIC "-//W3C//DTD SVG 1.1//EN" "http://www.w3.org/Graphics/SVG/1.1/DTD/svg11.dtd" >
<svg xmlns="http://www.w3.org/2000/svg" xmlns:xlink="http://www.w3.org/1999/xlink" version="1.1" viewBox="0 0 1452 2048">
  <g transform="matrix(1 0 0 -1 0 1638)">
   <path fill="currentColor"
d="M990 660q66 0 66 -66q0 -14 -5 -26l-159 -370h164q0 70 4 86q12 46 62 46t62 -46q4 -16 4 -86q70 0 86 -4q46 -12 46 -62t-46 -62q-16 -4 -86 -4v-132q0 -66 -66 -66t-66 66v132h-264q-66 0 -66 66q0 14 5 26l198 462q17 40 61 40zM330 66q0 19 8 33l661 1187
q19 34 57 34q66 0 66 -66q0 -18 -8 -32l-661 -1187q-19 -35 -57 -35q-66 0 -66 66zM330 1056h-66q-66 0 -66 66t66 66h66q27 0 46.5 19.5t19.5 46.5q0 66 -66 66h-132q-66 0 -66 66t66 66h132q82 0 140 -58t58 -140q0 -66 -40 -119q106 -76 106 -211q0 -110 -77.5 -187
t-186.5 -77h-132q-66 0 -66 66t66 66h132q55 0 93.5 38.5t38.5 93.5q0 56 -38 94t-94 38z" />
  </g>

</svg>
