<?xml version="1.0" standalone="no"?>
<!DOCTYPE svg PUBLIC "-//W3C//DTD SVG 1.1//EN" "http://www.w3.org/Graphics/SVG/1.1/DTD/svg11.dtd" >
<svg xmlns="http://www.w3.org/2000/svg" xmlns:xlink="http://www.w3.org/1999/xlink" version="1.1" viewBox="0 0 1452 2048">
  <g transform="matrix(1 0 0 -1 0 1638)">
   <path fill="currentColor"
d="M198 1188q-66 0 -66 66t66 66h396q66 0 66 -66t-66 -66h-132v-594q0 -66 -66 -66t-66 66v594h-132zM1056 924l-132 168v-498q0 -66 -66 -66t-66 66v660q0 66 66 66q30 0 66 -42l132 -156l132 156q36 42 66 42q66 0 66 -66v-660q0 -66 -66 -66t-66 66v498z" />
  </g>

</svg>
